<?xml version="1.0" encoding="utf-8"?>
<!-- Generator: $$$/GeneralStr/196=Adobe Illustrator 27.6.0, SVG Export Plug-In . SVG Version: 6.00 Build 0)  -->
<svg version="1.1" id="Capa_1" xmlns="http://www.w3.org/2000/svg" xmlns:xlink="http://www.w3.org/1999/xlink" x="0px" y="0px"
	 viewBox="0 0 93 30" style="enable-background:new 0 0 93 30;" xml:space="preserve">
<style type="text/css">
	.st0{clip-path:url(#SVGID_00000160184911388859941410000003721237942714444977_);}
	.st1{fill:#0046E1;}
</style>
<g>
	<defs>
		<rect id="SVGID_1_" x="0.6" y="0.6" width="91.8" height="28.8"/>
	</defs>
	<clipPath id="SVGID_00000115491969795363068340000013754916181389969812_">
		<use xlink:href="#SVGID_1_"  style="overflow:visible;"/>
	</clipPath>
	<g style="clip-path:url(#SVGID_00000115491969795363068340000013754916181389969812_);">
		<path class="st1" d="M6.7,11.9c-1.3,0-2.3,0.6-3,1.5V8H0.6v14.8h3.2v-1.4c0.7,1,1.8,1.6,3,1.6c2.8,0,4.6-2.2,4.6-5.4
			C11.4,14.1,9.5,11.9,6.7,11.9z M6,20.2c-1.3,0-2.2-1.1-2.2-2.8c0-1.6,0.9-2.8,2.2-2.8c1.3,0,2.2,1.2,2.2,2.8
			C8.2,19,7.3,20.2,6,20.2z"/>
		<path class="st1" d="M14.7,7.1c-1,0-1.7,0.8-1.7,1.8c0,1.1,0.7,1.8,1.7,1.8c1,0,1.7-0.8,1.7-1.8C16.4,7.9,15.7,7.1,14.7,7.1z"/>
		<path class="st1" d="M13.1,22.8h3.2V12h-3.2V22.8z"/>
		<path class="st1" d="M24.6,19.8c-0.5,0.2-0.9,0.4-1.2,0.4c-0.6,0-0.9-0.3-0.9-1.2v-4.2H25v-2.3h-2.6v-3h-3.2v3h-1.4v2.3h1.4v4.7
			c0,2.2,1.4,3.4,3.3,3.4c1,0,1.9-0.3,2.6-0.7L24.6,19.8z"/>
		<path class="st1" d="M76.8,11.4c-1.7,0-2.9,0.9-3.6,2.5c-0.5-1.6-1.7-2.5-3.4-2.5c-1.5,0-2.7,0.7-3.4,2v-1.8h-3.3v11.2h3.3v-5.5
			c0-1.5,0.8-2.6,2-2.6c1.1,0,1.7,0.8,1.7,2.1v6h3.3v-5.5c0-1.5,0.8-2.6,2-2.6c1.1,0,1.8,0.8,1.8,2.1v6h3.3v-7
			C80.4,13.1,79,11.4,76.8,11.4z"/>
		<path class="st1" d="M87.2,11.4c-3.2,0-5.3,2.3-5.3,5.7c0,3.4,2.1,5.7,5.4,5.7c1.9,0,3.4-0.7,4.4-2L90,19
			c-0.7,0.7-1.6,1.1-2.4,1.1c-1.2,0-2.1-0.7-2.4-2.1h7.2C92.6,14,90.8,11.4,87.2,11.4z M89.2,16.2h-4.1c0.2-1.3,1-2.3,2.1-2.3
			C88.4,13.9,89.2,14.8,89.2,16.2z"/>
		<path class="st1" d="M48.7,1.3c-2.1-0.7-4.4-0.9-6.6-0.5c-2.2,0.3-4.3,1.2-6.1,2.4c-0.2-0.2-0.4-0.3-0.7-0.3
			c-0.3-0.1-0.7-0.1-1-0.1c-0.3,0-0.7,0.1-1,0.3s-0.6,0.4-0.8,0.6c-0.2,0.3-0.4,0.6-0.5,0.9c-0.1,0.4-0.2,0.8-0.1,1.2
			c0.1,0.4,0.2,0.8,0.5,1.1c-1.2,1.8-2,3.9-2.4,6c-0.3,2.2-0.1,4.4,0.5,6.5c0.7,2.1,1.8,4,3.3,5.6c1.5,1.6,3.4,2.8,5.4,3.6
			c0.2,0.1,0.3,0.1,0.5,0.2c1.8,0.6,3.7,0.8,5.6,0.7c1.9-0.1,3.7-0.7,5.4-1.5c0.6-0.3,1.1-0.6,1.6-1l1.3,1.3
			c0.1,0.1,0.3,0.1,0.3-0.1l1.4-4c1.1-1.4,2-3,2.6-4.7C60.4,11.9,56.3,3.8,48.7,1.3z M56.8,19.1c-0.5,1.4-1.2,2.7-2.1,3.9l-4.3,1.5
			c-0.2,0.1-0.2,0.2-0.1,0.3l1.2,1.2c-0.4,0.3-0.8,0.5-1.3,0.7c-1.5,0.8-3.2,1.3-4.9,1.4c-1.7,0.1-3.4-0.1-5.1-0.6
			c-7-2.3-10.7-9.7-8.4-16.6c0.4-1.1,0.9-2.2,1.6-3.2c0.1,0.1,0.2,0.1,0.4,0.2c0.3,0.1,0.7,0.1,1,0.1c0.3,0,0.7-0.1,1-0.3
			C36,7.5,36.3,7.3,36.5,7c0.2-0.3,0.4-0.6,0.5-0.9c0.1-0.3,0.1-0.7,0.1-1c0-0.3-0.1-0.7-0.3-1C38.5,3,40.4,2.3,42.4,2
			c2-0.3,4-0.1,5.9,0.5c0.2,0.1,0.3,0.1,0.5,0.2c3.2,1.2,5.8,3.5,7.3,6.6C57.6,12.3,57.8,15.8,56.8,19.1z"/>
		<path class="st1" d="M46.3,16.7c1-1,1.7-1.9,2-2.5c0.4-0.6,0.6-1.3,0.6-2.1c0-1.3-0.5-2.4-1.4-3.1c-0.9-0.8-2-1.1-3.2-1.1
			c-1.2,0-2.2,0.3-3,0.8c-0.8,0.5-1.5,1.3-2.1,2.3l2.5,1.5c0.8-1.3,1.6-1.9,2.5-1.9c0.5,0,0.9,0.2,1.2,0.5c0.2,0.2,0.3,0.3,0.3,0.5
			c0.1,0.2,0.1,0.4,0.1,0.6c0,0.5-0.2,0.9-0.5,1.4c-0.4,0.5-0.9,1.2-1.8,2l-4.1,4.2v2.3h9.8v-2.8h-5.5L46.3,16.7z"/>
	</g>
</g>
</svg>